<?xml version="1.0" standalone="no"?>
<!DOCTYPE svg PUBLIC "-//W3C//DTD SVG 20010904//EN"
 "http://www.w3.org/TR/2001/REC-SVG-20010904/DTD/svg10.dtd">
<svg version="1.0" xmlns="http://www.w3.org/2000/svg"
 width="775.000000pt" height="488.000000pt" viewBox="0 0 775.000000 488.000000"
 preserveAspectRatio="xMidYMid meet">
<metadata>
Created by potrace 1.16, written by Peter Selinger 2001-2019
</metadata>
<g transform="translate(0.000000,488.000000) scale(0.100000,-0.100000)"
fill="#000000" stroke="none">
<path d="M5635 3850 c-132 -16 -485 -56 -785 -89 -300 -34 -619 -70 -710 -81
-91 -10 -210 -24 -265 -30 -55 -6 -156 -17 -225 -25 -105 -13 -651 -73 -950
-105 -164 -18 -141 -5 88 50 72 18 132 33 132 34 0 0 -253 1 -562 1 -555 0
-733 7 -1087 40 -261 25 -296 23 -420 -30 -189 -81 -276 -129 -279 -156 -5
-42 22 -113 46 -124 26 -12 26 -15 7 -79 -10 -33 -15 -92 -15 -176 0 -153 -19
-271 -60 -377 -31 -77 -31 -80 -25 -203 4 -69 13 -168 22 -220 21 -128 13
-277 -21 -388 -24 -80 -25 -88 -16 -225 10 -159 25 -218 76 -288 38 -52 41
-64 19 -73 -12 -4 -15 -23 -15 -85 l0 -80 217 6 c242 7 421 -4 714 -43 225
-29 291 -30 552 -4 210 20 709 64 857 75 47 4 173 15 279 26 113 11 199 15
204 10 10 -10 -19 -17 -223 -57 -74 -14 -137 -28 -140 -31 -8 -8 414 6 685 23
670 42 905 35 1260 -38 36 -7 142 -12 270 -12 224 1 288 7 875 90 127 18 216
29 375 49 88 11 123 19 130 31 6 9 21 33 34 53 94 142 140 319 142 556 0 50 4
99 8 109 4 11 3 39 -2 63 -13 57 5 265 34 393 16 67 22 129 23 210 0 133 -18
203 -86 332 l-41 77 36 55 c20 29 33 57 30 60 -4 3 -48 6 -98 6 -83 0 -94 2
-113 23 -12 13 -22 28 -22 34 0 7 33 28 73 48 86 44 123 76 138 122 19 59 -9
135 -61 163 -34 18 -216 40 -435 51 -121 6 -224 15 -228 19 -4 4 -3 19 3 34
24 65 -5 151 -63 186 -42 26 -82 25 -382 -10z m-4520 -540 c7 -12 -174 -189
-193 -190 -8 0 -11 7 -9 18 3 9 13 49 23 87 9 39 22 76 27 83 12 15 143 17
152 2z m454 -621 c88 -44 163 -84 166 -89 3 -5 -73 -49 -170 -97 -96 -48 -175
-93 -175 -99 0 -6 161 -92 357 -190 197 -98 366 -187 375 -196 16 -16 18 -39
18 -187 0 -94 -4 -172 -8 -175 -5 -3 -60 21 -123 53 -63 32 -307 156 -544 275
-236 119 -435 222 -442 228 -10 8 -13 53 -11 197 l3 186 170 87 c94 47 182 87
196 87 15 1 99 -35 188 -80z m1694 45 c13 -4 17 -16 17 -53 0 -26 -5 -52 -12
-59 -7 -7 -33 -12 -60 -12 -73 0 -76 -9 -81 -235 -3 -113 -1 -198 5 -209 8
-16 17 -17 64 -11 65 8 84 -3 84 -49 0 -75 -1 -76 -114 -76 -55 0 -108 4 -116
10 -9 5 -19 5 -27 -2 -9 -8 -21 -8 -36 -1 -12 6 -31 7 -42 2 -42 -16 -61 -10
-73 24 -7 18 -12 40 -12 49 0 16 55 48 82 48 8 0 23 9 34 21 17 19 18 36 15
222 -1 111 -5 204 -8 207 -2 2 -29 5 -59 6 -62 2 -59 0 -68 37 -5 23 -1 34 23
57 l29 30 169 -1 c92 0 176 -3 186 -5z m1189 -6 c48 -14 126 -82 153 -132 18
-32 18 -38 5 -47 -8 -5 -40 -8 -71 -6 -47 3 -63 9 -94 36 -31 27 -43 32 -69
27 -44 -9 -83 -52 -106 -118 -26 -74 -25 -143 1 -210 37 -95 90 -130 156 -103
28 12 63 58 63 84 0 6 -28 11 -62 13 l-63 3 -3 58 -3 57 134 0 c134 0 135 0
152 -26 14 -22 15 -32 4 -77 -18 -74 -73 -177 -93 -177 -5 0 -15 -9 -24 -19
-46 -53 -175 -80 -235 -50 -49 25 -133 126 -154 185 -60 166 -22 352 91 451
68 60 136 76 218 51z m803 -53 l0 -60 -135 -3 c-159 -3 -169 -9 -170 -99 l0
-52 78 -3 77 -3 0 -55 0 -55 -75 -5 -75 -5 -3 -70 c-4 -97 4 -105 109 -116 66
-6 90 -5 113 7 24 12 34 12 58 2 26 -12 28 -17 28 -69 l0 -57 -147 0 c-135 -1
-152 1 -193 22 -26 13 -58 41 -75 65 l-30 43 -3 211 c-2 172 0 217 12 237 9
14 19 34 25 45 11 26 29 41 77 65 34 17 58 19 184 17 l145 -2 0 -60z m313 40
c20 -17 43 -60 76 -142 57 -142 67 -164 84 -181 13 -15 13 -26 15 208 l2 135
54 3 c30 2 58 -1 63 -6 6 -6 9 -59 8 -119 -1 -59 -2 -204 -1 -321 l1 -213 -25
-24 c-47 -48 -145 -22 -145 39 0 13 -6 29 -14 35 -8 7 -17 22 -20 35 -3 12
-27 67 -52 122 -44 92 -48 97 -54 69 -3 -16 -4 -86 -2 -154 3 -135 -2 -181
-20 -163 -7 7 -17 7 -34 0 -56 -26 -81 23 -78 153 1 53 7 105 13 117 15 27 14
85 -1 100 -17 17 -22 238 -7 275 13 30 51 56 86 57 12 0 35 -11 51 -25z
m-1800 -192 l3 -93 27 -1 c15 0 46 0 68 1 47 2 76 -25 67 -61 -3 -10 0 -19 6
-19 6 0 11 -9 11 -20 0 -18 -6 -19 -74 -17 -100 4 -106 -1 -106 -96 0 -42 -4
-78 -8 -81 -5 -3 -34 -2 -65 1 l-57 6 0 78 0 78 -92 3 -93 3 0 60 0 60 88 3
87 3 0 89 c0 61 4 90 13 94 6 2 37 4 67 3 l55 -2 3 -92z"/>
</g>
</svg>
